<?xml version="1.0" standalone="no"?>
<!DOCTYPE svg PUBLIC "-//W3C//DTD SVG 20010904//EN"
 "http://www.w3.org/TR/2001/REC-SVG-20010904/DTD/svg10.dtd">
<svg version="1.0" xmlns="http://www.w3.org/2000/svg"
 width="666.000000pt" height="123.000000pt" viewBox="0 0 666.000000 123.000000"
 preserveAspectRatio="xMidYMid meet">
<metadata>
Created by potrace 1.16, written by Peter Selinger 2001-2019
</metadata>
<g transform="translate(0.000000,123.000000) scale(0.100000,-0.100000)"
fill="#000000" stroke="none">
<path d="M3927 1098 c-10 -5 -25 -7 -33 -4 -9 4 -14 -1 -14 -14 0 -14 7 -20
24 -20 27 0 53 -24 36 -35 -6 -3 -23 -4 -39 0 -20 4 -30 2 -34 -9 -7 -18 1
-26 28 -26 34 0 45 -20 35 -65 -4 -22 -11 -62 -15 -90 -6 -43 -9 -47 -20 -32
-17 23 -95 24 -95 1 0 -36 -25 -3 -48 64 -21 60 -29 72 -51 76 -14 3 -104 4
-198 3 l-173 -3 -2 51 -1 50 -4 -45 c-3 -24 -9 -50 -14 -57 -6 -6 -7 -27 -3
-47 8 -47 -3 -96 -17 -75 -8 11 -12 11 -16 2 -6 -15 -53 -18 -53 -3 0 6 5 10
10 10 15 0 12 36 -4 49 -11 9 -20 10 -35 1 -22 -11 -28 -35 -11 -45 6 -3 10
-26 10 -51 0 -42 -1 -44 -30 -44 -16 0 -30 -5 -30 -10 0 -6 12 -9 28 -8 21 2
28 -2 30 -18 2 -17 -2 -21 -28 -22 -32 -1 -60 -17 -60 -34 0 -11 44 1 48 13 6
14 32 10 38 -6 9 -22 -5 -38 -22 -24 -10 8 -14 8 -14 0 0 -6 -17 -11 -41 -11
-32 0 -40 3 -38 18 5 50 -2 152 -11 152 -6 0 -10 -28 -10 -64 0 -36 -4 -67
-10 -71 -5 -3 -45 13 -90 35 -115 58 -199 93 -175 74 17 -14 103 -56 243 -120
27 -13 32 -20 32 -49 l0 -35 -1020 0 -1019 0 -4 158 -3 157 -2 -157 -2 -158
-329 0 c-290 0 -331 -2 -346 -16 -15 -15 -14 -17 9 -29 14 -8 62 -17 106 -21
54 -4 80 -11 80 -19 0 -7 -7 -15 -15 -19 -17 -6 -20 -37 -4 -53 6 -6 9 -21 7
-34 -2 -20 -10 -25 -40 -27 -30 -3 -38 -7 -38 -23 0 -34 39 -104 83 -147 l43
-42 2954 2 2955 3 6 45 c10 67 30 109 88 177 l51 62 -107 3 -108 3 0 40 0 40
63 14 c119 28 75 36 -168 33 l-230 -3 -2 123 -2 123 -6 -120 -5 -120 -760 2
c-418 1 -779 2 -802 2 -38 0 -42 2 -45 28 -3 27 -5 28 -60 29 -57 0 -58 0 -58
-28 0 -21 -5 -28 -20 -28 -18 0 -20 7 -20 54 0 39 4 55 15 60 16 6 21 36 6 36
-5 0 -13 29 -16 65 -6 55 -10 65 -26 65 -11 0 -19 -6 -19 -14 0 -19 -18 -24
-57 -19 -27 4 -33 10 -33 29 0 13 5 24 10 24 6 0 10 7 10 15 0 16 -30 35 -54
35 -21 0 -21 -49 -1 -56 22 -9 18 -39 -7 -53 -27 -13 -80 -12 -90 4 -4 5 -8
45 -8 88 0 73 1 78 25 89 14 6 25 15 25 19 0 12 -33 27 -47 22 -19 -7 -16 24
3 35 25 14 13 46 -18 49 -15 1 -30 -3 -34 -9 -4 -7 -9 -7 -13 0 -4 7 -12 7
-24 0z"/>
</g>
</svg>
