<?xml version="1.0" standalone="no"?>
<!DOCTYPE svg PUBLIC "-//W3C//DTD SVG 20010904//EN"
 "http://www.w3.org/TR/2001/REC-SVG-20010904/DTD/svg10.dtd">
<svg version="1.0" xmlns="http://www.w3.org/2000/svg"
 width="624.000000pt" height="123.000000pt" viewBox="0 0 624.000000 123.000000"
 preserveAspectRatio="xMidYMid meet">
<metadata>
Created by potrace 1.16, written by Peter Selinger 2001-2019
</metadata>
<g transform="translate(0.000000,123.000000) scale(0.100000,-0.100000)"
fill="#000000" stroke="none">
<path d="M3101 1056 c-5 -11 -11 -32 -13 -46 -2 -18 -10 -26 -28 -28 -14 -2
-30 -10 -37 -19 -6 -8 -17 -12 -24 -8 -7 5 -10 3 -7 -6 2 -8 21 -15 41 -17 35
-3 37 -5 37 -37 0 -39 -8 -65 -21 -65 -5 0 -9 9 -9 19 0 20 -13 35 -22 25 -12
-11 6 -53 24 -57 22 -6 16 -27 -8 -27 -18 0 -18 -10 0 -24 10 -8 13 -25 9 -61
-5 -48 -6 -50 -36 -50 -23 0 -33 -5 -35 -19 -2 -10 3 -23 11 -27 9 -5 13 -18
9 -34 -4 -23 -9 -25 -58 -25 -41 0 -54 -4 -54 -15 0 -8 -6 -15 -14 -15 -8 0
-16 -7 -20 -15 -10 -28 -36 -17 -36 15 0 23 -4 30 -20 30 -11 0 -20 -7 -20
-15 0 -8 -5 -15 -11 -15 -6 0 -8 9 -4 20 5 14 2 20 -10 20 -12 0 -15 -6 -10
-21 5 -15 3 -20 -6 -17 -11 3 -17 46 -24 164 -9 151 -11 159 -30 156 -11 -2
-39 -5 -62 -9 -24 -3 -43 -8 -44 -12 0 -3 -2 -76 -4 -161 -2 -85 -4 -158 -4
-161 -1 -11 -55 -18 -66 -9 -6 5 -33 10 -60 12 l-50 3 -3 56 c-3 58 3 70 51
94 27 13 37 41 11 30 -46 -19 -59 -12 -62 33 -3 38 -1 42 20 43 l23 0 -22 9
c-13 5 -23 16 -23 24 0 24 -15 27 -65 11 -27 -8 -53 -13 -59 -12 -7 1 -12 -39
-14 -120 -1 -71 -7 -123 -12 -123 -6 0 -11 94 -12 243 l-2 242 -6 -205 c-4
-113 -8 -226 -9 -252 -1 -43 -3 -48 -25 -48 -13 0 -30 -10 -39 -22 -16 -23
-16 -22 -16 15 -1 20 -6 37 -12 37 -7 0 -10 18 -7 50 2 35 -1 50 -9 50 -8 0
-13 -14 -13 -34 0 -47 -9 -66 -31 -66 -17 0 -19 9 -19 102 l0 101 -22 -20
c-13 -11 -31 -23 -40 -26 -15 -5 -18 -19 -18 -80 l0 -74 -61 -7 c-34 -3 -65
-3 -70 0 -5 3 -9 32 -9 65 0 55 -2 59 -22 59 -37 0 -47 -13 -50 -64 -2 -31 -8
-51 -17 -54 -10 -3 -12 2 -7 22 5 20 3 26 -9 26 -10 0 -15 -7 -13 -17 1 -10
-1 -24 -5 -30 -5 -9 1 -17 17 -25 27 -12 35 -41 15 -54 -7 -4 -8 -9 -1 -13 5
-3 11 -40 13 -81 l4 -75 -73 -3 c-57 -2 -73 0 -70 10 3 7 21 17 41 21 35 8 37
11 37 47 l0 38 -50 4 c-33 2 -51 -1 -55 -9 -3 -9 -34 -13 -108 -13 -81 0 -107
-3 -117 -15 -10 -12 -39 -15 -129 -16 -64 -1 -147 -5 -186 -9 -67 -7 -65 -7
45 -9 165 -2 220 -10 220 -31 0 -23 -49 -28 -353 -29 -172 -2 -247 1 -242 9 3
5 41 10 83 11 42 0 86 4 97 9 12 5 -80 9 -227 9 -159 1 -248 -3 -248 -9 0 -9
45 -14 152 -15 26 0 48 -4 48 -10 0 -13 -221 -7 -234 6 -13 12 -123 11 -131
-1 -3 -5 -19 -10 -36 -10 -39 0 -37 16 9 110 42 85 53 93 165 116 97 20 94 30
-5 14 -151 -25 -153 -25 -150 -42 1 -8 -11 -46 -27 -84 -28 -66 -56 -92 -84
-78 -7 3 -4 -1 6 -9 26 -21 21 -30 -13 -23 -37 7 -37 2 -2 -89 l28 -70 2887 0
2887 0 11 55 c10 47 27 99 53 160 5 13 -4 14 -60 12 -54 -3 -69 -1 -76 12 -12
22 -50 20 -77 -3 -19 -16 -44 -19 -218 -23 -151 -3 -203 -1 -223 9 -33 17 -50
16 -65 -3 -10 -14 -55 -17 -330 -25 -312 -8 -356 -6 -339 22 3 5 56 10 117 10
62 1 141 5 177 9 60 6 55 7 -55 9 -66 2 -160 7 -210 13 -49 5 -133 11 -185 13
-119 3 -121 4 -85 20 26 11 7 13 -152 16 -118 3 -185 8 -194 16 -14 11 -103
15 -277 14 -63 -1 -63 -1 -60 -28 2 -22 11 -30 36 -39 50 -16 39 -29 -28 -32
l-60 -3 0 86 0 85 -75 0 -75 0 0 29 c0 16 6 31 15 35 27 10 15 26 -20 26 -19
0 -35 -4 -35 -10 0 -5 -4 -10 -10 -10 -5 0 -10 18 -10 40 0 54 -23 89 -55 82
-22 -4 -24 -10 -27 -61 -3 -49 -6 -56 -25 -59 -18 -3 -23 2 -23 17 0 16 -6 21
-24 21 -14 0 -28 -4 -31 -10 -15 -24 -25 -6 -25 45 0 37 4 55 13 55 9 0 9 2
-1 9 -9 5 -13 26 -11 64 1 31 0 60 -4 64 -16 15 -6 41 18 47 31 8 33 33 3 38
-18 2 -24 11 -28 41 -4 28 -12 41 -31 51 -25 13 -28 12 -38 -8z m1194 -636
c-3 -5 -26 -10 -51 -10 -43 0 -45 -1 -42 -27 2 -21 10 -29 36 -35 58 -15 36
-29 -40 -26 -71 3 -73 4 -76 31 -3 24 -7 27 -41 27 -30 0 -40 4 -44 19 -6 25
9 27 156 30 70 0 106 -3 102 -9z"/>
</g>
</svg>
