<?xml version="1.0" standalone="no"?>
<!DOCTYPE svg PUBLIC "-//W3C//DTD SVG 20010904//EN"
 "http://www.w3.org/TR/2001/REC-SVG-20010904/DTD/svg10.dtd">
<svg version="1.0" xmlns="http://www.w3.org/2000/svg"
 width="499.000000pt" height="107.000000pt" viewBox="0 0 499.000000 107.000000"
 preserveAspectRatio="xMidYMid meet">
<metadata>
Created by potrace 1.16, written by Peter Selinger 2001-2019
</metadata>
<g transform="translate(0.000000,107.000000) scale(0.100000,-0.100000)"
fill="#000000" stroke="none">
<path d="M2938 977 c10 -12 23 -114 38 -302 3 -38 6 -79 7 -89 1 -14 -7 -23
-25 -30 -23 -8 -31 -6 -43 10 -13 16 -16 17 -24 4 -15 -21 -1 -163 15 -173 17
-10 19 -73 3 -83 -6 -3 -18 1 -27 10 -13 13 -21 58 -33 182 -14 138 -20 167
-35 179 -16 11 -21 11 -35 -1 -8 -8 -25 -14 -36 -14 -42 0 -48 -23 -35 -128
22 -171 26 -262 13 -262 -12 0 -14 11 -11 50 1 20 -1 23 -11 13 -21 -21 -27
-16 -35 30 -4 23 -9 34 -12 25 -4 -20 -32 -25 -32 -5 0 7 -16 13 -40 14 -28 1
-40 -3 -40 -13 0 -8 -4 -14 -10 -14 -15 0 -12 26 5 40 11 9 13 16 5 24 -18 18
-11 53 13 61 l22 8 -22 4 c-25 5 -32 23 -10 23 9 0 12 10 9 30 -5 32 -29 43
-28 13 3 -63 -18 -259 -31 -284 -16 -33 -31 -37 -40 -11 -3 9 -13 25 -21 34
-9 11 -19 65 -28 150 -20 195 -14 182 -84 174 -43 -5 -60 -3 -64 6 -3 7 -3
-11 0 -41 19 -168 20 -211 5 -236 -9 -14 -24 -25 -33 -25 -22 0 -23 14 -2 34
14 15 -9 16 -252 16 -214 0 -266 -3 -256 -12 8 -8 51 -14 118 -16 l105 -4 -3
-66 -3 -67 -102 -3 -103 -3 0 36 c0 19 -4 35 -10 35 -5 0 -10 11 -10 25 0 16
-6 25 -15 25 -9 0 -15 9 -15 24 0 27 -28 43 -36 22 -4 -12 -10 -11 -35 1 -16
8 -29 19 -29 24 0 5 -9 9 -20 9 -13 0 -20 7 -20 20 0 29 -2 34 -16 45 -8 6
-15 37 -17 80 -3 60 -3 57 -5 -27 -2 -76 -5 -98 -16 -98 -8 0 -16 -7 -20 -15
-6 -16 -78 -21 -123 -9 -22 6 -21 -2 -52 244 l-9 75 1 -85 c2 -81 1 -85 -21
-88 -12 -2 -22 -8 -22 -13 0 -5 -4 -9 -10 -9 -16 0 -12 40 5 46 25 10 18 43
-11 50 -35 9 -53 -10 -32 -33 21 -23 13 -73 -12 -73 -18 0 -43 24 -53 50 -4
10 -6 8 -6 -7 -1 -12 -5 -25 -11 -28 -5 -3 -10 -15 -10 -25 0 -11 -9 -24 -20
-30 -29 -16 -24 -28 13 -32 32 -3 32 -3 40 -73 4 -38 6 -95 5 -125 -3 -54 -4
-55 -35 -58 -36 -4 -47 19 -17 36 10 6 14 20 12 43 -3 29 -7 34 -32 37 -16 2
-33 -1 -38 -6 -7 -7 -18 -7 -34 1 -18 8 -28 7 -36 -1 -7 -7 -26 -12 -44 -12
-17 0 -37 -7 -44 -15 -8 -10 -31 -15 -64 -16 -28 0 -69 -4 -91 -8 -34 -7 -26
-9 48 -10 86 -1 88 -2 85 -24 -2 -17 -11 -23 -37 -25 -20 -2 -38 2 -43 10 -8
10 -11 10 -15 1 -3 -9 -37 -13 -119 -13 -97 0 -113 2 -108 15 6 16 -2 18 -48
15 -16 -1 -28 3 -28 9 0 6 -7 11 -15 11 -8 0 -15 -4 -15 -9 0 -5 -68 -6 -153
-3 -179 6 -182 4 -171 -77 l7 -51 2306 0 2307 0 13 52 c7 29 20 75 28 101 9
26 14 49 12 51 -2 2 -44 -1 -94 -5 -101 -10 -687 -40 -691 -36 -1 1 -4 11 -6
22 -3 18 4 20 77 25 91 6 75 18 -25 19 -35 1 -69 6 -74 11 -6 6 -20 10 -33 10
-13 0 -23 5 -23 10 0 15 -57 12 -63 -2 -4 -10 -7 -10 -18 0 -17 15 -81 16 -97
0 -15 -15 -15 -55 0 -64 7 -4 34 -6 61 -5 37 2 48 -1 45 -11 -3 -9 -29 -14
-86 -16 l-82 -3 0 36 c0 24 -4 34 -11 29 -6 -3 -16 0 -21 7 -7 11 -11 11 -15
2 -10 -26 -24 -12 -21 20 l3 32 90 6 c50 3 88 6 85 7 -3 1 -47 4 -97 6 -53 2
-99 8 -107 15 -8 7 -19 10 -24 7 -6 -3 -15 1 -22 9 -15 18 -51 20 -68 3 -10
-10 -14 -10 -21 0 -5 9 -24 12 -52 10 l-44 -3 1 -53 2 -53 -32 4 c-30 3 -31 5
-34 58 -2 30 -7 58 -13 63 -5 6 -9 41 -9 78 0 64 2 69 26 78 38 15 19 30 -37
30 -40 0 -49 3 -49 18 0 26 -35 45 -50 27 -7 -8 -28 -15 -46 -15 -28 0 -34 4
-34 21 0 11 10 29 22 39 22 17 22 17 2 28 -28 15 -64 4 -64 -19 0 -11 7 -22
15 -25 8 -4 15 -17 15 -31 0 -14 -4 -22 -10 -18 -6 4 -17 2 -25 -5 -8 -6 -16
-7 -19 -2 -8 13 -29 195 -30 255 -1 39 -4 47 -20 47 -14 0 -16 -3 -8 -13z"/>
</g>
</svg>
