<?xml version="1.0" standalone="no"?>
<!DOCTYPE svg PUBLIC "-//W3C//DTD SVG 20010904//EN"
 "http://www.w3.org/TR/2001/REC-SVG-20010904/DTD/svg10.dtd">
<svg version="1.0" xmlns="http://www.w3.org/2000/svg"
 width="455.000000pt" height="107.000000pt" viewBox="0 0 455.000000 107.000000"
 preserveAspectRatio="xMidYMid meet">
<metadata>
Created by potrace 1.16, written by Peter Selinger 2001-2019
</metadata>
<g transform="translate(0.000000,107.000000) scale(0.100000,-0.100000)"
fill="#000000" stroke="none">
<path d="M2831 728 l4 -213 -30 0 c-27 -1 -31 -5 -35 -35 l-5 -35 -80 0 -80 0
-5 89 c-5 89 -12 104 -40 86 -11 -6 -12 -12 -4 -20 6 -6 8 -26 5 -48 -6 -33
-10 -37 -38 -40 -30 -3 -32 -1 -36 35 -2 21 -4 -8 -5 -64 l-2 -103 -125 0
-125 0 0 30 c0 19 -5 30 -14 30 -14 0 -22 54 -29 195 l-2 50 -57 3 -57 3 5
-131 c5 -127 4 -131 -15 -128 -11 2 -20 0 -21 -4 -1 -22 2 -26 22 -31 12 -4
19 -9 16 -12 -12 -12 -58 7 -58 25 0 24 -15 28 -106 29 -101 0 -103 0 -76 11
46 19 25 37 -50 45 -40 5 -82 7 -93 6 -38 -3 -49 15 -56 96 -7 72 -6 80 14
102 l22 25 -31 -22 c-16 -11 -48 -22 -70 -24 -36 -3 -39 -6 -42 -34 -2 -19
-17 -45 -37 -67 -37 -40 -36 -51 1 -16 35 33 44 16 44 -82 0 -82 -2 -89 -20
-89 -13 0 -18 5 -14 15 4 10 0 15 -11 15 -11 0 -15 -5 -11 -15 4 -12 -4 -15
-44 -15 -40 0 -50 3 -50 16 0 9 7 22 16 29 33 24 23 120 -12 120 -17 0 -20 14
-29 160 l-11 160 -8 -157 c-8 -149 -9 -157 -30 -160 -18 -3 -21 -10 -24 -65
l-3 -61 -124 0 c-115 0 -155 8 -105 21 11 3 20 9 20 14 0 5 -35 8 -80 5 -76
-4 -80 -3 -89 19 -9 22 -10 21 -10 -12 -1 -25 -7 -39 -18 -43 -12 -5 -14 -9
-5 -18 29 -29 13 -38 -65 -38 -98 1 -138 24 -96 56 16 12 15 13 -13 14 -36 0
-48 -8 -34 -24 16 -21 -7 -39 -51 -40 -42 -1 -44 -2 -47 -33 -3 -31 -6 -33
-43 -33 -39 0 -52 13 -24 24 8 3 15 17 15 31 0 22 -4 25 -32 25 -46 -1 -80
-21 -68 -40 22 -35 12 -40 -75 -40 l-85 0 0 -36 0 -36 -67 3 -68 4 -6 -40 c-4
-22 -9 -60 -10 -85 l-3 -45 2087 -3 c1148 -1 2087 1 2087 5 0 5 11 63 25 131
34 169 35 162 -25 162 -31 0 -61 -7 -76 -17 -22 -14 -55 -17 -197 -17 -156 -1
-172 1 -175 17 -3 14 4 17 42 17 25 0 46 4 46 10 0 5 -19 9 -42 8 -24 0 -67 3
-95 7 -51 7 -53 7 -53 -17 0 -13 5 -29 12 -36 9 -9 -4 -12 -60 -12 -70 0 -72
1 -72 24 0 23 -5 25 -47 28 -44 3 -48 5 -48 28 0 29 -11 40 -44 40 -23 0 -24
-1 -6 -20 10 -11 16 -21 14 -23 -39 -23 -60 -27 -134 -27 l-85 0 0 55 c0 30
-5 66 -12 80 -12 27 -48 35 -48 10 0 -17 -35 -28 -76 -23 -25 3 -29 7 -26 31
2 22 -1 27 -19 27 -18 0 -20 -4 -15 -25 8 -31 -17 -44 -46 -26 -10 6 -23 9
-29 5 -6 -3 -38 -7 -72 -8 l-62 -1 -3 213 c-2 146 -6 212 -13 212 -8 0 -10
-62 -8 -212z"/>
</g>
</svg>
